<?xml version="1.0" standalone="no"?>
<!DOCTYPE svg PUBLIC "-//W3C//DTD SVG 20010904//EN"
 "http://www.w3.org/TR/2001/REC-SVG-20010904/DTD/svg10.dtd">
<svg version="1.0" xmlns="http://www.w3.org/2000/svg"
 width="400.000000pt" height="400.000000pt" viewBox="0 0 400.000000 400.000000"
 preserveAspectRatio="xMidYMid meet">
<metadata>
Created by potrace 1.11, written by Peter Selinger 2001-2013
</metadata>
<g transform="translate(0.000000,400.000000) scale(0.100000,-0.100000)"
fill="#000000" stroke="none">
<path d="M1930 3987 c-14 -8 -57 -35 -97 -60 -39 -26 -74 -47 -78 -47 -16 0
-335 -163 -335 -172 0 -5 -4 -7 -9 -4 -5 3 -14 -1 -21 -9 -7 -8 -16 -15 -20
-15 -11 0 -183 -102 -191 -113 -3 -5 -10 -9 -15 -9 -9 -1 -26 -10 -69 -35 -11
-7 -36 -20 -55 -30 -19 -9 -41 -23 -48 -29 -6 -7 -22 -16 -35 -20 -12 -4 -24
-10 -27 -14 -3 -3 -57 -34 -120 -67 -63 -33 -131 -69 -150 -80 -19 -11 -89
-48 -155 -83 -66 -35 -124 -66 -130 -70 -9 -6 -188 -102 -320 -170 -47 -25
-50 -29 -53 -69 -3 -33 0 -41 10 -35 7 4 56 36 109 71 99 64 123 78 369 205
80 42 196 103 258 137 62 33 115 61 117 61 2 0 95 52 207 116 111 64 228 130
258 147 30 16 80 44 110 61 56 33 206 106 215 106 3 0 27 9 53 21 26 12 56 25
67 30 213 92 255 128 209 173 -19 19 -22 19 -54 3z"/>
<path d="M2020 3973 c0 -13 75 -80 105 -94 11 -5 34 -17 50 -27 17 -10 97 -56
180 -102 82 -46 154 -87 160 -92 5 -5 44 -29 85 -55 41 -25 91 -56 110 -68 58
-37 232 -140 280 -166 25 -13 47 -26 50 -29 3 -3 21 -13 40 -24 19 -10 76 -41
125 -69 50 -28 216 -114 370 -192 315 -160 394 -202 412 -217 10 -8 13 2 13
51 l0 61 -42 21 c-24 12 -53 27 -65 33 -13 6 -23 15 -23 19 0 5 -4 5 -10 2 -5
-3 -10 -2 -10 3 0 6 -12 15 -27 21 -16 6 -37 16 -47 23 -70 46 -159 97 -291
169 -208 112 -362 197 -550 304 -151 86 -401 213 -480 245 -33 13 -64 26 -70
30 -5 4 -32 13 -60 20 -75 20 -282 114 -297 135 -5 6 -8 6 -8 -2z"/>
<path d="M7 2783 c-6 -11 -10 -1829 -3 -1822 18 18 25 358 16 769 -5 183 4
526 14 575 15 77 27 237 23 292 -10 115 -36 210 -50 186z"/>
<path d="M3986 2748 c-3 -24 -8 -72 -11 -108 -9 -104 -9 -1010 -1 -1185 4 -88
9 -193 11 -234 11 -214 15 -2 15 742 0 455 -2 827 -4 827 -2 0 -6 -19 -10 -42z"/>
<path d="M1671 2562 c-57 -9 -139 -134 -129 -197 11 -67 41 -49 58 37 14 75
31 101 76 123 65 31 111 0 168 -113 25 -49 25 -52 7 -52 -11 0 -23 -5 -27 -11
-11 -18 18 -38 66 -44 25 -3 63 -8 85 -11 80 -11 179 -13 192 -3 6 6 21 29 32
52 39 80 94 126 141 119 37 -5 60 -37 84 -115 9 -31 28 -69 42 -85 l26 -27 -7
25 c-3 14 -8 36 -11 50 -14 73 -47 140 -80 161 -41 25 -90 27 -130 6 -41 -22
-100 -86 -118 -127 -14 -35 -15 -36 -73 -34 -112 4 -159 19 -172 55 -6 16 -16
43 -22 59 -18 49 -67 110 -97 121 -31 12 -77 17 -111 11z"/>
<path d="M1685 2350 c-10 -11 -20 -39 -22 -64 -5 -37 -2 -46 16 -55 30 -17 58
2 71 47 13 47 13 69 0 77 -23 14 -49 12 -65 -5z"/>
<path d="M2280 2270 c-11 -11 -21 -26 -21 -32 -8 -92 -1 -118 35 -118 49 0 82
126 41 156 -25 18 -31 18 -55 -6z"/>
<path d="M1279 2212 c-30 -7 -58 -15 -64 -16 -19 -4 -60 -28 -82 -49 -25 -22
-29 -56 -12 -88 12 -23 135 -85 186 -95 25 -5 33 -11 33 -28 0 -11 10 -50 21
-86 28 -85 28 -206 2 -317 -11 -46 -17 -83 -12 -83 17 0 53 65 64 119 11 54
11 99 1 226 -6 62 -11 93 -22 127 -6 20 -3 20 67 14 41 -3 83 -8 94 -10 11 -2
49 -7 85 -10 79 -8 215 -40 414 -96 161 -45 171 -48 231 -56 46 -7 43 -7 74
-5 33 1 24 8 -21 15 -21 3 -93 24 -160 47 -68 23 -139 45 -158 49 -19 4 -87
21 -150 38 -65 17 -154 33 -205 36 -199 12 -322 35 -420 80 -105 49 -119 78
-55 111 27 14 198 53 253 58 9 1 17 5 17 10 0 4 5 5 10 2 6 -3 10 -2 10 4 0
25 -110 28 -201 3z"/>
<path d="M2480 2200 c0 -25 32 -79 75 -125 64 -69 105 -129 132 -195 27 -67
30 -88 8 -70 -23 19 -30 -12 -10 -49 18 -37 32 -40 37 -8 3 21 4 20 18 -7 8
-16 20 -31 27 -33 22 -7 -45 178 -89 247 -119 187 -198 282 -198 240z"/>
<path d="M1710 1980 c0 -19 11 -26 23 -14 8 8 -3 34 -14 34 -5 0 -9 -9 -9 -20z"/>
<path d="M1851 1957 c-16 -16 -13 -27 8 -27 22 0 35 26 17 33 -8 3 -19 0 -25
-6z"/>
<path d="M2351 1829 c-31 -12 -20 -22 26 -26 46 -3 58 -15 44 -41 -18 -35 -60
-54 -107 -50 -36 2 -41 1 -30 -10 33 -33 118 -8 149 45 17 29 17 34 3 60 -8
15 -15 25 -16 21 0 -4 -10 -4 -22 1 -13 5 -34 5 -47 0z"/>
<path d="M2780 1630 c0 -11 9 -43 20 -72 24 -63 23 -61 8 -55 -19 6 -68 -32
-79 -61 -13 -34 3 -72 31 -72 11 0 23 -6 26 -14 8 -20 69 -50 88 -43 10 4 16
18 16 39 0 31 3 29 39 -37 21 -38 42 -81 46 -95 8 -25 7 -25 -13 -6 -19 16
-25 17 -52 6 -57 -23 -80 -88 -40 -110 11 -6 20 -8 20 -5 0 4 16 -3 35 -15 44
-27 65 -15 66 39 1 35 2 34 19 -20 26 -79 32 -121 35 -227 4 -151 -24 -252
-86 -311 -36 -35 -62 -41 -159 -34 -41 2 -87 5 -102 5 -16 1 -28 7 -28 15 0
32 -114 43 -175 16 -47 -21 -123 -73 -106 -73 6 0 35 14 65 30 l53 30 59 -20
c32 -12 66 -22 74 -24 28 -6 12 -21 -43 -41 -30 -11 -62 -26 -71 -34 -9 -7
-16 -11 -16 -7 0 3 -55 -23 -122 -58 -179 -94 -208 -110 -208 -118 0 -15 27
-7 71 20 87 55 185 107 274 145 50 22 102 48 117 58 14 11 32 19 38 19 21 0
-10 -30 -71 -70 -89 -57 -446 -231 -463 -224 -11 4 -13 0 -9 -15 10 -41 78
-24 188 45 28 17 100 57 160 89 190 101 259 154 240 185 -8 13 7 12 75 -3 93
-22 147 -11 195 39 61 62 87 144 87 269 0 157 -34 328 -98 488 -63 154 -171
347 -196 347 -4 0 -8 -9 -8 -20z"/>
<path d="M1283 1428 c-28 -47 -71 -143 -66 -151 6 -10 -55 -4 -115 12 -20 6
-48 12 -62 15 -14 3 -95 21 -180 41 -102 25 -182 38 -234 39 -89 1 -111 -14
-49 -35 39 -13 49 -14 138 -23 43 -5 188 -28 250 -41 11 -2 120 -24 241 -49
313 -63 458 -103 556 -152 27 -14 49 -23 51 -22 1 2 18 -13 36 -32 27 -29 30
-31 21 -10 -16 35 -76 87 -132 116 -63 32 -201 71 -350 98 l-123 23 -3 31 c-2
24 5 40 32 70 41 45 44 57 17 72 -15 7 -22 7 -28 -2z"/>
<path d="M466 1345 c-47 -48 11 -236 162 -525 93 -178 195 -330 222 -330 13 0
-41 107 -89 180 -32 47 -81 131 -152 258 -40 71 -105 295 -112 385 -4 46 -10
52 -31 32z"/>
<path d="M2560 1202 c0 -7 15 -42 34 -79 33 -66 73 -188 81 -252 l4 -31 -51 0
c-51 0 -170 -16 -198 -27 -8 -3 -21 -7 -27 -9 -30 -6 -184 -86 -213 -110 -27
-23 -42 -27 -95 -28 -35 -1 -66 -4 -70 -8 -14 -14 6 -25 51 -31 34 -3 53 -12
65 -28 14 -18 19 -20 19 -8 0 21 85 101 140 131 23 12 53 29 66 36 13 7 34 15
45 17 11 2 30 7 42 11 12 4 64 6 116 6 94 -1 142 11 124 29 -6 6 -7 30 -3 57
4 26 6 51 4 57 -2 5 -5 24 -7 40 -7 45 -46 141 -62 155 -8 7 -15 18 -15 24 0
7 -11 23 -25 36 -14 13 -25 18 -25 12z"/>
<path d="M3988 1065 c-15 -40 -18 -118 -20 -500 -2 -282 1 -396 9 -410 10 -16
13 -17 17 -5 4 8 5 222 4 475 -2 253 -6 451 -10 440z"/>
<path d="M1859 963 c0 -5 -2 -16 -4 -26 -2 -9 17 -59 42 -110 53 -109 72 -155
124 -302 22 -60 54 -133 71 -162 33 -54 54 -70 44 -33 -3 11 -9 30 -12 43 -6
25 -56 148 -86 216 -11 24 -35 89 -54 145 -19 56 -39 109 -44 118 -6 10 -10
23 -10 31 0 30 -68 107 -71 80z"/>
<path d="M2 925 c0 -16 2 -22 5 -12 2 9 2 23 0 30 -3 6 -5 -1 -5 -18z"/>
<path d="M2 840 c0 -14 2 -19 5 -12 2 6 2 18 0 25 -3 6 -5 1 -5 -13z"/>
<path d="M1 794 c0 -11 3 -14 6 -6 3 7 2 16 -1 19 -3 4 -6 -2 -5 -13z"/>
<path d="M2 745 c0 -16 2 -22 5 -12 2 9 2 23 0 30 -3 6 -5 -1 -5 -18z"/>
<path d="M2 685 c0 -16 2 -22 5 -12 2 9 2 23 0 30 -3 6 -5 -1 -5 -18z"/>
<path d="M2267 662 c-23 -27 -37 -59 -36 -84 1 -19 3 -17 15 12 8 19 27 44 40
56 21 17 23 22 11 27 -8 3 -22 -2 -30 -11z"/>
<path d="M2363 620 c-37 -22 -59 -53 -68 -95 -5 -27 -4 -27 16 10 22 41 58 79
81 88 7 2 11 7 8 10 -3 4 -20 -2 -37 -13z"/>
<path d="M920 421 c0 -13 44 -28 180 -60 140 -33 226 -50 330 -67 19 -3 84
-16 145 -30 60 -13 119 -26 130 -28 11 -2 56 -13 100 -24 82 -20 185 -40 242
-46 73 -8 -24 48 -102 58 -88 12 -170 27 -275 51 -76 17 -209 47 -225 51 -11
2 -56 13 -100 24 -44 10 -123 26 -175 35 -120 19 -151 25 -170 30 -39 11 -80
14 -80 6z"/>
<path d="M0 265 c0 -138 2 -156 15 -145 8 7 13 15 11 19 -2 3 -7 67 -10 140
-4 74 -9 137 -11 140 -3 2 -5 -67 -5 -154z"/>
<path d="M2136 233 c-6 -14 -5 -15 5 -6 7 7 10 15 7 18 -3 3 -9 -2 -12 -12z"/>
<path d="M1905 72 c-1 -2 -391 -5 -866 -8 -475 -3 -875 -6 -889 -8 -14 -2 -32
-4 -39 -5 -33 -3 7 -20 58 -25 194 -19 2349 -27 3096 -12 242 5 475 9 518 8
42 0 77 4 77 9 0 5 -12 9 -27 10 -138 5 -294 10 -368 14 -49 2 -391 6 -760 10
-368 3 -698 7 -733 8 -35 1 -65 1 -67 -1z"/>
<path d="M3870 30 c0 -4 11 -7 25 -5 37 4 40 12 5 13 -16 0 -30 -3 -30 -8z"/>
</g>
</svg>
