<?xml version="1.0" standalone="no"?>
<!DOCTYPE svg PUBLIC "-//W3C//DTD SVG 20010904//EN"
 "http://www.w3.org/TR/2001/REC-SVG-20010904/DTD/svg10.dtd">
<svg version="1.0" xmlns="http://www.w3.org/2000/svg"
 width="798.000000pt" height="798.000000pt" viewBox="0 0 798.000000 798.000000"
 preserveAspectRatio="xMidYMid meet">
<metadata>
Created by potrace 1.14, written by Peter Selinger 2001-2017
</metadata>
<g transform="translate(0.000000,798.000000) scale(0.100000,-0.100000)"
fill="#000000" stroke="none">
<path d="M3690 7904 c-63 -42 -168 -102 -235 -134 -516 -249 -547 -266 -1210
-653 -214 -125 -289 -169 -335 -194 -176 -99 -408 -227 -475 -263 -44 -23
-107 -57 -140 -75 -114 -62 -190 -102 -300 -160 -60 -32 -123 -65 -140 -75
-16 -10 -75 -41 -130 -70 -55 -29 -118 -63 -140 -75 -22 -12 -92 -49 -155 -83
-63 -34 -185 -98 -270 -144 l-155 -83 -3 -2790 c-2 -3061 -6 -2853 55 -2934
33 -43 72 -58 141 -55 l57 2 -47 -11 c-25 -7 -50 -15 -54 -19 -11 -11 34 -25
106 -32 36 -4 81 -9 100 -11 47 -6 241 -15 425 -20 160 -5 2450 -15 3835 -17
745 -1 1296 4 1830 17 370 9 676 15 970 20 308 6 409 11 418 20 3 3 -10 5 -29
6 -19 1 -47 2 -64 4 -28 3 -182 11 -385 20 -47 2 -170 7 -275 11 -104 3 -192
8 -194 10 -2 2 230 3 517 1 358 -2 523 0 525 7 2 6 3 46 2 89 -1 65 2 80 16
88 13 7 19 5 22 -9 3 -9 5 407 6 924 1 860 0 943 -15 955 -15 12 -16 30 -10
134 3 66 10 140 14 165 4 25 7 805 7 1734 l0 1688 -60 34 c-33 19 -67 38 -75
41 -8 4 -17 9 -20 12 -6 7 7 0 -315 183 -143 81 -267 153 -275 158 -8 6 -22
13 -30 17 -8 3 -69 36 -135 73 -66 37 -149 82 -185 102 -36 19 -85 46 -110 60
-25 14 -70 39 -100 55 -30 17 -158 88 -285 158 -126 70 -255 141 -285 158 -30
17 -67 38 -82 49 -14 10 -28 18 -31 18 -3 0 -58 31 -123 68 -66 38 -153 87
-194 109 -41 22 -104 57 -140 77 -133 73 -519 264 -635 314 -66 28 -214 85
-330 128 -219 80 -296 113 -405 174 -175 99 -177 99 -198 84 -17 -12 -21 -12
-26 1 -4 11 -22 15 -69 15 -62 0 -65 -1 -177 -76z"/>
<path d="M7960 245 c-11 -13 -10 -14 4 -9 9 3 16 10 16 15 0 13 -6 11 -20 -6z"/>
</g>
</svg>
